<?xml version="1.0" encoding="UTF-8"?>
<svg width="64px" height="64px" viewBox="0 0 64 64" version="1.1" xmlns="http://www.w3.org/2000/svg" xmlns:xlink="http://www.w3.org/1999/xlink">
    <!-- Generator: Sketch 51.3 (57544) - http://www.bohemiancoding.com/sketch -->
    <title>github</title>
    <desc>Created with Sketch.</desc>
    <defs></defs>
    <g id="github" stroke="none" stroke-width="1" fill="none" fill-rule="evenodd">
        <g id="Group" transform="translate(8.000000, 8.000000)">
            <g id="Group-9">
                <g id="Group-4-Copy" fill="#000000" stroke="#000000" stroke-width="1.8">
                    <g id="Group-Copy">
                        <g id="Group-2">
                            <polygon id="Fill-1" points="5.33333333 0 5.33333333 2.66666667 2.66666667 2.66666667 2.66666667 5.33333333 0 5.33333333 0 42.6666667 2.66666667 42.6666667 2.66666667 45.3333333 5.33333333 45.3333333 5.33333333 48 42.668 48 42.668 45.3333333 45.3346667 45.3333333 45.3346667 42.6666667 48 42.6666667 48 5.33333333 45.3346667 5.33333333 45.3346667 2.66666667 42.668 2.66666667 42.668 0"></polygon>
                        </g>
                    </g>
                </g>
                <g id="Group-8" transform="translate(9.000000, 6.000000)" fill="#FFFFFF">
                    <g id="Group-7" transform="translate(0.000000, 10.000000)" fill-rule="nonzero" stroke="#FFFFFF">
                        <g id="Group-5">
                            <rect id="Rectangle-2-Copy" x="4.76923077" y="2.35267857" width="2.38461538" height="2.35267857"></rect>
                            <rect id="Rectangle-2-Copy-11" x="26.2307692" y="2.35267857" width="2.38461538" height="2.35267857"></rect>
                            <rect id="Rectangle-2-Copy-2" x="7.15384615" y="2.35267857" width="2.38461538" height="2.35267857"></rect>
                            <rect id="Rectangle-2-Copy-12" x="16.6923077" y="2.35267857" width="2.38461538" height="2.35267857"></rect>
                            <rect id="Rectangle-2-Copy-3" x="9.53846154" y="2.35267857" width="2.38461538" height="2.35267857"></rect>
                            <rect id="Rectangle-2-Copy-13" x="19.0769231" y="2.35267857" width="2.38461538" height="2.35267857"></rect>
                            <rect id="Rectangle-2-Copy-7" x="11.9230769" y="2.35267857" width="2.38461538" height="2.35267857"></rect>
                            <rect id="Rectangle-2-Copy-14" x="21.4615385" y="2.35267857" width="2.38461538" height="2.35267857"></rect>
                            <rect id="Rectangle-2-Copy-9" x="14.3076923" y="2.35267857" width="2.38461538" height="2.35267857"></rect>
                            <rect id="Rectangle-2-Copy-15" x="23.8461538" y="2.35267857" width="2.38461538" height="2.35267857"></rect>
                            <rect id="Rectangle-2-Copy" x="4.76923077" y="7.05803571" width="2.38461538" height="2.35267857"></rect>
                            <rect id="Rectangle-2-Copy-11" x="26.2307692" y="7.05803571" width="2.38461538" height="2.35267857"></rect>
                            <rect id="Rectangle-2-Copy-2" x="7.15384615" y="7.05803571" width="2.38461538" height="2.35267857"></rect>
                            <rect id="Rectangle-2-Copy-12" x="16.6923077" y="7.05803571" width="2.38461538" height="2.35267857"></rect>
                            <rect id="Rectangle-2-Copy-3" x="9.53846154" y="7.05803571" width="2.38461538" height="2.35267857"></rect>
                            <rect id="Rectangle-2-Copy-13" x="19.0769231" y="7.05803571" width="2.38461538" height="2.35267857"></rect>
                            <rect id="Rectangle-2-Copy-7" x="11.9230769" y="7.05803571" width="2.38461538" height="2.35267857"></rect>
                            <rect id="Rectangle-2-Copy-14" x="21.4615385" y="7.05803571" width="2.38461538" height="2.35267857"></rect>
                            <rect id="Rectangle-2-Copy-9" x="14.3076923" y="7.05803571" width="2.38461538" height="2.35267857"></rect>
                            <rect id="Rectangle-2-Copy-15" x="23.8461538" y="7.05803571" width="2.38461538" height="2.35267857"></rect>
                            <rect id="Rectangle-2-Copy" x="4.76923077" y="11.7633929" width="2.38461538" height="2.35267857"></rect>
                            <rect id="Rectangle-2-Copy-11" x="26.2307692" y="11.7633929" width="2.38461538" height="2.35267857"></rect>
                            <rect id="Rectangle-2-Copy-2" x="7.15384615" y="11.7633929" width="2.38461538" height="2.35267857"></rect>
                            <rect id="Rectangle-2-Copy-12" x="16.6923077" y="11.7633929" width="2.38461538" height="2.35267857"></rect>
                            <rect id="Rectangle-2-Copy-3" x="9.53846154" y="11.7633929" width="2.38461538" height="2.35267857"></rect>
                            <rect id="Rectangle-2-Copy-13" x="19.0769231" y="11.7633929" width="2.38461538" height="2.35267857"></rect>
                            <rect id="Rectangle-2-Copy-7" x="11.9230769" y="11.7633929" width="2.38461538" height="2.35267857"></rect>
                            <rect id="Rectangle-2-Copy-14" x="21.4615385" y="11.7633929" width="2.38461538" height="2.35267857"></rect>
                            <rect id="Rectangle-2-Copy-9" x="14.3076923" y="11.7633929" width="2.38461538" height="2.35267857"></rect>
                            <rect id="Rectangle-2-Copy-15" x="23.8461538" y="11.7633929" width="2.38461538" height="2.35267857"></rect>
                            <rect id="Rectangle-2-Copy" x="4.76923077" y="9.41071429" width="2.38461538" height="2.35267857"></rect>
                            <rect id="Rectangle-2-Copy-11" x="26.2307692" y="9.41071429" width="2.38461538" height="2.35267857"></rect>
                            <rect id="Rectangle-2-Copy-2" x="7.15384615" y="9.41071429" width="2.38461538" height="2.35267857"></rect>
                            <rect id="Rectangle-2-Copy-12" x="16.6923077" y="9.41071429" width="2.38461538" height="2.35267857"></rect>
                            <rect id="Rectangle-2-Copy-3" x="9.53846154" y="9.41071429" width="2.38461538" height="2.35267857"></rect>
                            <rect id="Rectangle-2-Copy-13" x="19.0769231" y="9.41071429" width="2.38461538" height="2.35267857"></rect>
                            <rect id="Rectangle-2-Copy-7" x="11.9230769" y="9.41071429" width="2.38461538" height="2.35267857"></rect>
                            <rect id="Rectangle-2-Copy-14" x="21.4615385" y="9.41071429" width="2.38461538" height="2.35267857"></rect>
                            <rect id="Rectangle-2-Copy-9" x="14.3076923" y="9.41071429" width="2.38461538" height="2.35267857"></rect>
                            <rect id="Rectangle-2-Copy-15" x="23.8461538" y="9.41071429" width="2.38461538" height="2.35267857"></rect>
                            <rect id="Rectangle-2-Copy" x="4.76923077" y="9.41071429" width="2.38461538" height="2.35267857"></rect>
                            <rect id="Rectangle-2-Copy-22" x="2.38461538" y="9.41071429" width="2.38461538" height="2.35267857"></rect>
                            <rect id="Rectangle-2-Copy-23" x="2.38461538" y="11.7633929" width="2.38461538" height="2.35267857"></rect>
                            <rect id="Rectangle-2-Copy-11" x="26.2307692" y="9.41071429" width="2.38461538" height="2.35267857"></rect>
                            <rect id="Rectangle-2-Copy-21" x="28.6153846" y="9.41071429" width="2.38461538" height="2.35267857"></rect>
                            <rect id="Rectangle-2-Copy-24" x="28.6153846" y="11.7633929" width="2.38461538" height="2.35267857"></rect>
                            <rect id="Rectangle-2-Copy-2" x="7.15384615" y="9.41071429" width="2.38461538" height="2.35267857"></rect>
                            <rect id="Rectangle-2-Copy-12" x="16.6923077" y="9.41071429" width="2.38461538" height="2.35267857"></rect>
                            <rect id="Rectangle-2-Copy-3" x="9.53846154" y="9.41071429" width="2.38461538" height="2.35267857"></rect>
                            <rect id="Rectangle-2-Copy-13" x="19.0769231" y="9.41071429" width="2.38461538" height="2.35267857"></rect>
                            <rect id="Rectangle-2-Copy-7" x="11.9230769" y="9.41071429" width="2.38461538" height="2.35267857"></rect>
                            <rect id="Rectangle-2-Copy-14" x="21.4615385" y="9.41071429" width="2.38461538" height="2.35267857"></rect>
                            <rect id="Rectangle-2-Copy-9" x="14.3076923" y="9.41071429" width="2.38461538" height="2.35267857"></rect>
                            <rect id="Rectangle-2-Copy-15" x="23.8461538" y="9.41071429" width="2.38461538" height="2.35267857"></rect>
                            <rect id="Rectangle-2-Copy" x="4.76923077" y="14.1160714" width="2.38461538" height="2.35267857"></rect>
                            <rect id="Rectangle-2-Copy-11" x="26.2307692" y="14.1160714" width="2.38461538" height="2.35267857"></rect>
                            <rect id="Rectangle-2-Copy-2" x="7.15384615" y="14.1160714" width="2.38461538" height="2.35267857"></rect>
                            <rect id="Rectangle-2-Copy-12" x="16.6923077" y="14.1160714" width="2.38461538" height="2.35267857"></rect>
                            <rect id="Rectangle-2-Copy-3" x="9.53846154" y="14.1160714" width="2.38461538" height="2.35267857"></rect>
                            <rect id="Rectangle-2-Copy-13" x="19.0769231" y="14.1160714" width="2.38461538" height="2.35267857"></rect>
                            <rect id="Rectangle-2-Copy-7" x="11.9230769" y="14.1160714" width="2.38461538" height="2.35267857"></rect>
                            <rect id="Rectangle-2-Copy-14" x="21.4615385" y="14.1160714" width="2.38461538" height="2.35267857"></rect>
                            <rect id="Rectangle-2-Copy-9" x="14.3076923" y="14.1160714" width="2.38461538" height="2.35267857"></rect>
                            <rect id="Rectangle-2-Copy-15" x="23.8461538" y="14.1160714" width="2.38461538" height="2.35267857"></rect>
                            <rect id="Rectangle-2" x="4.76923077" y="0" width="2.38461538" height="2.35267857"></rect>
                            <rect id="Rectangle-2-Copy-10" x="26.2307692" y="0" width="2.38461538" height="2.35267857"></rect>
                            <rect id="Rectangle-2-Copy-4" x="5.96153846" y="4.70535714" width="2.38461538" height="2.35267857"></rect>
                            <rect id="Rectangle-2-Copy-16" x="15.5" y="4.70535714" width="2.38461538" height="2.35267857"></rect>
                            <rect id="Rectangle-2-Copy-5" x="8.34615385" y="4.70535714" width="2.38461538" height="2.35267857"></rect>
                            <rect id="Rectangle-2-Copy-17" x="17.8846154" y="4.70535714" width="2.38461538" height="2.35267857"></rect>
                            <rect id="Rectangle-2-Copy-6" x="10.7307692" y="4.70535714" width="2.38461538" height="2.35267857"></rect>
                            <rect id="Rectangle-2-Copy-18" x="20.2692308" y="4.70535714" width="2.38461538" height="2.35267857"></rect>
                            <rect id="Rectangle-2-Copy-8" x="13.1153846" y="4.70535714" width="2.38461538" height="2.35267857"></rect>
                            <rect id="Rectangle-2-Copy-19" x="22.6538462" y="4.70535714" width="2.38461538" height="2.35267857"></rect>
                            <rect id="Rectangle-2-Copy-20" x="25.0384615" y="4.70535714" width="2.38461538" height="2.35267857"></rect>
                            <rect id="Rectangle-2-Copy-4" x="11.9230769" y="21.1741071" width="2.38461538" height="2.35267857"></rect>
                            <rect id="Rectangle-2-Copy-5" x="14.3076923" y="21.1741071" width="2.38461538" height="2.35267857"></rect>
                            <rect id="Rectangle-2-Copy-6" x="16.6923077" y="21.1741071" width="2.38461538" height="2.35267857"></rect>
                            <rect id="Rectangle-2-Copy-8" x="19.0769231" y="21.1741071" width="2.38461538" height="2.35267857"></rect>
                            <rect id="Rectangle-2-Copy-4" x="11.9230769" y="25.8794643" width="2.38461538" height="2.35267857"></rect>
                            <rect id="Rectangle-2-Copy-5" x="14.3076923" y="25.8794643" width="2.38461538" height="2.35267857"></rect>
                            <rect id="Rectangle-2-Copy-6" x="16.6923077" y="25.8794643" width="2.38461538" height="2.35267857"></rect>
                            <rect id="Rectangle-2-Copy-8" x="19.0769231" y="25.8794643" width="2.38461538" height="2.35267857"></rect>
                            <rect id="Rectangle-2-Copy-4" x="2.38461538" y="21.1741071" width="2.38461538" height="2.35267857"></rect>
                            <rect id="Rectangle-2-Copy-25" x="0" y="18.8214286" width="2.38461538" height="2.35267857"></rect>
                            <rect id="Rectangle-2-Copy-5" x="4.76923077" y="23.5267857" width="2.38461538" height="2.35267857"></rect>
                            <rect id="Rectangle-2-Copy-6" x="7.15384615" y="24.703125" width="2.38461538" height="2.35267857"></rect>
                            <rect id="Rectangle-2-Copy-8" x="9.53846154" y="24.703125" width="2.38461538" height="2.35267857"></rect>
                            <rect id="Rectangle-2-Copy-4" x="11.9230769" y="28.2321429" width="2.38461538" height="2.35267857"></rect>
                            <rect id="Rectangle-2-Copy-5" x="14.3076923" y="28.2321429" width="2.38461538" height="2.35267857"></rect>
                            <rect id="Rectangle-2-Copy-6" x="16.6923077" y="28.2321429" width="2.38461538" height="2.35267857"></rect>
                            <rect id="Rectangle-2-Copy-8" x="19.0769231" y="28.2321429" width="2.38461538" height="2.35267857"></rect>
                            <rect id="Rectangle-2-Copy-4" x="11.9230769" y="23.5267857" width="2.38461538" height="2.35267857"></rect>
                            <rect id="Rectangle-2-Copy-5" x="14.3076923" y="23.5267857" width="2.38461538" height="2.35267857"></rect>
                            <rect id="Rectangle-2-Copy-6" x="16.6923077" y="23.5267857" width="2.38461538" height="2.35267857"></rect>
                            <rect id="Rectangle-2-Copy-8" x="19.0769231" y="23.5267857" width="2.38461538" height="2.35267857"></rect>
                            <rect id="Rectangle-2-Copy-4" x="11.9230769" y="28.2321429" width="2.38461538" height="2.35267857"></rect>
                            <rect id="Rectangle-2-Copy-5" x="14.3076923" y="28.2321429" width="2.38461538" height="2.35267857"></rect>
                            <rect id="Rectangle-2-Copy-6" x="16.6923077" y="28.2321429" width="2.38461538" height="2.35267857"></rect>
                            <rect id="Rectangle-2-Copy-8" x="19.0769231" y="28.2321429" width="2.38461538" height="2.35267857"></rect>
                            <rect id="Rectangle-2-Copy-4" x="11.9230769" y="30.5848214" width="2.38461538" height="2.35267857"></rect>
                            <rect id="Rectangle-2-Copy-5" x="14.3076923" y="30.5848214" width="2.38461538" height="2.35267857"></rect>
                            <rect id="Rectangle-2-Copy-6" x="16.6923077" y="30.5848214" width="2.38461538" height="2.35267857"></rect>
                            <rect id="Rectangle-2-Copy-8" x="19.0769231" y="30.5848214" width="2.38461538" height="2.35267857"></rect>
                            <rect id="Rectangle-2-Copy-4" x="5.96153846" y="16.46875" width="2.38461538" height="2.35267857"></rect>
                            <rect id="Rectangle-2-Copy-16" x="15.5" y="16.46875" width="2.38461538" height="2.35267857"></rect>
                            <rect id="Rectangle-2-Copy-5" x="8.34615385" y="16.46875" width="2.38461538" height="2.35267857"></rect>
                            <rect id="Rectangle-2-Copy-17" x="17.8846154" y="16.46875" width="2.38461538" height="2.35267857"></rect>
                            <rect id="Rectangle-2-Copy-6" x="10.7307692" y="16.46875" width="2.38461538" height="2.35267857"></rect>
                            <rect id="Rectangle-2-Copy-18" x="20.2692308" y="16.46875" width="2.38461538" height="2.35267857"></rect>
                            <rect id="Rectangle-2-Copy-8" x="13.1153846" y="16.46875" width="2.38461538" height="2.35267857"></rect>
                            <rect id="Rectangle-2-Copy-19" x="22.6538462" y="16.46875" width="2.38461538" height="2.35267857"></rect>
                            <rect id="Rectangle-2-Copy-20" x="25.0384615" y="16.46875" width="2.38461538" height="2.35267857"></rect>
                            <rect id="Rectangle-2-Copy-4" x="8.34615385" y="18.8214286" width="2.38461538" height="2.35267857"></rect>
                            <rect id="Rectangle-2-Copy-16" x="17.8846154" y="18.8214286" width="2.38461538" height="2.35267857"></rect>
                            <rect id="Rectangle-2-Copy-5" x="10.7307692" y="18.8214286" width="2.38461538" height="2.35267857"></rect>
                            <rect id="Rectangle-2-Copy-17" x="20.2692308" y="18.8214286" width="2.38461538" height="2.35267857"></rect>
                            <rect id="Rectangle-2-Copy-6" x="13.1153846" y="18.8214286" width="2.38461538" height="2.35267857"></rect>
                            <rect id="Rectangle-2-Copy-18" x="22.6538462" y="18.8214286" width="2.38461538" height="2.35267857"></rect>
                            <rect id="Rectangle-2-Copy-8" x="15.5" y="18.8214286" width="2.38461538" height="2.35267857"></rect>
                        </g>
                    </g>
                    <path d="M4,2.66875 L6,2.66875 L6,4.66875 C6,5.11041887 5.85781392,5.44270722 5.5734375,5.665625 C5.28906108,5.88854278 4.98750159,6 4.66875,6 L3.33125,6 C2.96666484,6 2.65364714,5.86927214 2.3921875,5.6078125 C2.13072786,5.34635286 2,5.03333516 2,4.66875 L2,1.33125 C2,0.972914875 2.12864455,0.661459656 2.3859375,0.396875 C2.64323045,0.132290344 2.95833147,0 3.33125,0 L4.66875,0 C5.50625419,0 5.94999975,0.443745562 6,1.33125 L5.33125,1.33125 C5.27916641,0.889581125 5.05833528,0.66875 4.66875,0.66875 L4,0.66875 C3.81666575,0.66875 3.65937566,0.733853516 3.528125,0.8640625 C3.39687434,0.994271484 3.33125,1.14999909 3.33125,1.33125 L3.33125,4.66875 C3.33125,4.85208425 3.39687434,5.00833269 3.528125,5.1375 C3.65937566,5.26666731 3.81666575,5.33125 4,5.33125 C4.42500212,5.31041656 4.64791656,5.08958544 4.66875,4.66875 L4.66875,3.33125 L4,3.33125 L4,2.66875 Z M7.33125,0.66875 L7.33125,0 L8.6625,0 L8.6625,0.66875 L7.33125,0.66875 Z M7.33125,6 L7.33125,1.33125 L8.6625,1.33125 L8.6625,6 L7.33125,6 Z M10.66875,0 L12,0 L12,1.33125 L12.66875,1.33125 L12.66875,2 L12,2 L12,4.66875 C12,4.88333441 12.0708326,5.04739527 12.2125,5.1609375 C12.3541674,5.27447973 12.4854161,5.33125 12.60625,5.33125 L12.66875,5.33125 L12.66875,6 L12,6 C11.6333315,6 11.319793,5.86927214 11.059375,5.6078125 C10.798957,5.34635286 10.66875,5.03333516 10.66875,4.66875 L10.66875,2 L10,2 L10,1.33125 L10.66875,1.33125 L10.66875,0 Z M14,6 L14,0 L15.33125,0 L15.33125,2.66875 L16.66875,2.66875 L16.66875,0 L18,0 L18,6 L16.66875,6 L16.66875,3.33125 L15.33125,3.33125 L15.33125,6 L14,6 Z M23.33125,1.33125 L23.33125,6 L22,6 L22,5.33125 C21.9479164,5.77708556 21.725002,6 21.33125,6 L20.6625,6 C20.2979148,6 19.9848971,5.86927214 19.7234375,5.6078125 C19.4619779,5.34635286 19.33125,5.03333516 19.33125,4.66875 L19.33125,1.33125 L20.6625,1.33125 L20.6625,4.66875 C20.6625,4.84791756 20.7276035,5.00312434 20.8578125,5.134375 C20.9880215,5.26562566 21.1458324,5.33125 21.33125,5.33125 C21.5166676,5.33125 21.6744785,5.26562566 21.8046875,5.134375 C21.9348965,5.00312434 22,4.84791756 22,4.66875 L22,1.33125 L23.33125,1.33125 Z M24.6625,6 L24.6625,0 L25.99375,0 L25.99375,2 C26.0208335,1.77499888 26.0901036,1.60729222 26.2015625,1.496875 C26.3130214,1.38645778 26.4666657,1.33125 26.6625,1.33125 L27.33125,1.33125 C27.6958352,1.33125 28.0088529,1.46301952 28.2703125,1.7265625 C28.5317721,1.99010548 28.6625,2.30416484 28.6625,2.66875 L28.6625,4.66875 C28.6625,5.02916847 28.5317721,5.34114452 28.2703125,5.6046875 C28.0088529,5.86823048 27.6958352,6 27.33125,6 L24.6625,6 Z M25.99375,5.33125 L26.6625,5.33125 C26.8479176,5.33125 27.0057285,5.26562566 27.1359375,5.134375 C27.2661465,5.00312434 27.33125,4.84791756 27.33125,4.66875 L27.33125,2.66875 C27.33125,2.48541575 27.2651048,2.32812566 27.1328125,2.196875 C27.0005202,2.06562434 26.8437509,2 26.6625,2 C26.4791657,2 26.3218757,2.06562434 26.190625,2.196875 C26.0593743,2.32812566 25.99375,2.48541575 25.99375,2.66875 L25.99375,5.33125 Z" id="GitHub"></path>
                </g>
            </g>
        </g>
    </g>
</svg>