<?xml version="1.0" encoding="UTF-8"?>
<svg width="64px" height="64px" viewBox="0 0 64 64" version="1.1" xmlns="http://www.w3.org/2000/svg" xmlns:xlink="http://www.w3.org/1999/xlink">
    <!-- Generator: Sketch 51.3 (57544) - http://www.bohemiancoding.com/sketch -->
    <title>linkedin</title>
    <desc>Created with Sketch.</desc>
    <defs></defs>
    <g id="linkedin" stroke="none" stroke-width="1" fill="none" fill-rule="evenodd">
        <g id="Group-4" transform="translate(8.000000, 8.000000)">
            <g id="Group-3">
                <g id="Group" fill="#006FAC" stroke="#000000" stroke-width="1.8">
                    <g id="Group-2">
                        <polygon id="Fill-1" points="5.33333333 0 5.33333333 2.66666667 2.66666667 2.66666667 2.66666667 5.33333333 0 5.33333333 0 42.6666667 2.66666667 42.6666667 2.66666667 45.3333333 5.33333333 45.3333333 5.33333333 48 42.668 48 42.668 45.3333333 45.3346667 45.3333333 45.3346667 42.6666667 48 42.6666667 48 5.33333333 45.3346667 5.33333333 45.3346667 2.66666667 42.668 2.66666667 42.668 0"></polygon>
                    </g>
                </g>
                <path d="M16.8653407,13.2865993 C16.8653407,15.1490055 15.3315944,16.5731986 13.4326704,16.5731986 C11.4972286,16.5731986 10,15.07597 10,13.2865993 C10,11.5337463 11.4972286,10 13.4326704,10 C15.3315944,10 16.8653407,11.4607108 16.8653407,13.2865993 Z M16.4271275,37.278774 L10.4382132,37.278774 L10.4382132,19.0929247 L16.4271275,19.0929247 L16.4271275,37.278774 Z M38,37.278774 L31.974568,37.278774 L31.974568,27.3459407 C31.974568,25.3374633 31.4268014,23.5115748 29.272253,23.5115748 C27.1542224,23.5115748 26.0586893,25.3374633 26.0586893,27.4189762 L26.0586893,37.278774 L20.0332573,37.278774 L20.0332573,19.0929247 L25.8395827,19.0929247 L25.8395827,21.6126508 L25.9126182,21.6126508 C26.7525269,20.0058689 28.8340398,18.5816759 31.3537659,18.5816759 C36.247147,18.5816759 38,22.379524 38,26.0313009 L38,37.278774 Z" id="in" fill="#FFFFFF"></path>
            </g>
        </g>
    </g>
</svg>