<?xml version="1.0" encoding="UTF-8"?>
<svg width="64px" height="64px" viewBox="0 0 64 64" version="1.1" xmlns="http://www.w3.org/2000/svg" xmlns:xlink="http://www.w3.org/1999/xlink">
    <!-- Generator: Sketch 51.3 (57544) - http://www.bohemiancoding.com/sketch -->
    <title>medium</title>
    <desc>Created with Sketch.</desc>
    <defs></defs>
    <g id="medium" stroke="none" stroke-width="1" fill="none" fill-rule="evenodd">
        <g id="Group-4" transform="translate(8.000000, 8.000000)">
            <g id="Group-Copy" fill="#000000" stroke="#000000" stroke-width="1.8">
                <g id="Group-2">
                    <polygon id="Fill-1" points="5.33333333 0 5.33333333 2.66666667 2.66666667 2.66666667 2.66666667 5.33333333 0 5.33333333 0 42.6666667 2.66666667 42.6666667 2.66666667 45.3333333 5.33333333 45.3333333 5.33333333 48 42.668 48 42.668 45.3333333 45.3346667 45.3333333 45.3346667 42.6666667 48 42.6666667 48 5.33333333 45.3346667 5.33333333 45.3346667 2.66666667 42.668 2.66666667 42.668 0"></polygon>
                </g>
            </g>
            <path d="M38,34.0262097 L27.1471774,34.0262097 L27.1471774,32.9254032 C27.4670715,32.8971773 27.8598767,32.8501347 28.3256048,32.7842742 C28.791333,32.7184136 29.1088701,32.6478498 29.2782258,32.5725806 C29.6263458,32.4314509 29.8756713,32.2385765 30.0262097,31.9939516 C30.1767481,31.7493267 30.2520161,31.438846 30.2520161,31.0625 L30.2520161,16.1028226 L23.3649194,33.7016129 L21.5866935,33.7016129 C21.5020157,33.3911275 21.2926764,32.7748702 20.9586694,31.8528226 C20.6246623,30.930775 20.3541677,30.1922071 20.1471774,29.6370968 L15.0806452,15.8770161 L15.0806452,28.0564516 C15.0806452,29.2231241 15.1582654,30.109876 15.3135081,30.7167339 C15.4687508,31.3235917 15.7204284,31.7681438 16.0685484,32.0504032 C16.3037646,32.2479849 16.7247954,32.436155 17.3316532,32.6149194 C17.9385111,32.7936837 18.3642461,32.8971773 18.608871,32.9254032 L18.608871,34.0262097 L10,34.0262097 L10,32.9254032 C10.2352162,32.8971773 10.6186129,32.8336698 11.1502016,32.734879 C11.6817903,32.6360882 12.1169338,32.4643829 12.4556452,32.2197581 C12.8319911,31.9563159 13.0860208,31.5117639 13.2177419,30.8860887 C13.349463,30.2604135 13.4153226,29.3689574 13.4153226,28.2116935 L13.4153226,18.2903226 C13.4153226,17.688169 13.3400545,17.187166 13.1895161,16.7872984 C13.0389777,16.3874308 12.8131735,16.0698936 12.5120968,15.8346774 C12.1357508,15.5430093 11.750002,15.3548391 11.3548387,15.2701613 C10.9596754,15.1854834 10.5598139,15.1290324 10.1552419,15.1008065 L10.1552419,14 L19.3709677,14 L24.3104839,27.2237903 L28.4737903,16.483871 C28.6149201,16.0887077 28.7513434,15.6182823 28.8830645,15.0725806 C29.0147856,14.526879 29.0853494,14.1693557 29.0947581,14 L37.9717742,14 L37.9717742,15.1008065 C37.6706974,15.1196238 37.3555124,15.1572578 37.0262097,15.2137097 C36.696907,15.2701616 36.3817219,15.3454296 36.0806452,15.4395161 C35.7137078,15.5618286 35.4714388,15.754703 35.3538306,16.0181452 C35.2362225,16.2815873 35.1774194,16.5732511 35.1774194,16.8931452 L35.1774194,31.0766129 C35.1774194,31.4153243 35.2362225,31.6999316 35.3538306,31.9304435 C35.4714388,32.1609555 35.7137078,32.3608863 36.0806452,32.5302419 C36.2688181,32.6149198 36.5769468,32.6948921 37.0050403,32.7701613 C37.4331339,32.8454305 37.7647838,32.8971773 38,32.9254032 L38,34.0262097 Z" id="M" fill="#FFFFFF"></path>
        </g>
    </g>
</svg>